Coordinates
version=1
nRows=60
nColumns=12
inDegrees=yes

Units are S.I. units (second, meters, Newtons, ...)
Angles are in degrees

endheader
time	SC_y	SC_z	SC_x	AC_y	AC_z	AC_x	GH_y	GH_z	GH_yy	EL_x	PS_y
       0.0              -54.08          17.62          45.26          30.64          4.905          1.684          -86.1          74.24         -151.7          42.46           56.8
   0.04538              -54.07          17.62          45.25          30.64          4.906          1.681         -86.09          74.23         -151.7          42.47          56.79
   0.09077              -54.07          17.62          45.25          30.64          4.906          1.678         -86.08          74.22         -151.6          42.47          56.79
    0.1361              -54.06          17.62          45.24          30.64          4.906          1.674         -86.07          74.21         -151.6          42.48          56.78
    0.1815              -54.06          17.62          45.24          30.65          4.907          1.671         -86.05          74.19         -151.5          42.48          56.78
    0.2269              -54.05          17.63          45.23          30.65          4.907          1.667         -86.04          74.18         -151.5          42.49          56.77
    0.2723              -54.04          17.63          45.22          30.65          4.907          1.663         -86.02          74.17         -151.4          42.49          56.77
    0.3177              -54.04          17.63          45.22          30.66          4.908          1.658          -86.0          74.15         -151.4           42.5          56.76
    0.3631              -54.03          17.63          45.21          30.66          4.908          1.654         -85.98          74.13         -151.3           42.5          56.75
    0.4084              -54.02          17.63           45.2          30.66          4.909          1.649         -85.96          74.11         -151.2          42.51          56.75
    0.4538              -54.01          17.63          45.19          30.67          4.909          1.643         -85.94          74.09         -151.1          42.52          56.74
    0.4992               -54.0          17.63          45.18          30.67           4.91          1.637         -85.91          74.07         -151.1          42.52          56.73
    0.5446              -53.99          17.64          45.17          30.68           4.91          1.631         -85.89          74.05         -151.0          42.53          56.72
      0.59              -53.98          17.64          45.16          30.68          4.911          1.624         -85.86          74.02         -150.9          42.54          56.71
    0.6354              -53.97          17.64          45.15          30.69          4.912          1.617         -85.83           74.0         -150.8          42.55           56.7
    0.6807              -53.95          17.64          45.14          30.69          4.912          1.609          -85.8          73.97         -150.6          42.56          56.69
    0.7261              -53.94          17.64          45.13           30.7          4.913            1.6         -85.76          73.94         -150.5          42.57          56.67
    0.7715              -53.93          17.65          45.11          30.71          4.914          1.591         -85.72           73.9         -150.4          42.59          56.66
    0.8169              -53.91          17.65           45.1          30.71          4.915           1.58         -85.68          73.86         -150.2           42.6          56.64
    0.8623              -53.89          17.65          45.08          30.72          4.916          1.569         -85.63          73.82         -150.1          42.61          56.63
    0.9077              -53.87          17.66          45.06          30.73          4.917          1.556         -85.58          73.78         -149.9          42.63          56.61
     0.953              -53.85          17.66          45.04          30.74          4.919          1.543         -85.53          73.73         -149.7          42.65          56.59
    0.9984              -53.82          17.67          45.02          30.75           4.92          1.528         -85.47          73.67         -149.5          42.67          56.56
     1.044               -53.8          17.67          44.99          30.77          4.922          1.511          -85.4          73.61         -149.2          42.69          56.54
     1.089              -53.76          17.68          44.96          30.78          4.923          1.492         -85.32          73.54         -149.0          42.71          56.51
     1.135              -53.73          17.68          44.93           30.8          4.925          1.471         -85.24          73.46         -148.7          42.74          56.48
      1.18              -53.69          17.69          44.89          30.81          4.928          1.448         -85.14          73.38         -148.3          42.77          56.45
     1.225              -53.65           17.7          44.85          30.83           4.93          1.422         -85.03          73.28         -147.9          42.81          56.41
     1.271               -53.6           17.7          44.81          30.86          4.933          1.392         -84.91          73.17         -147.5          42.85          56.36
     1.316              -53.55          17.71          44.76          30.88          4.936          1.359         -84.78          73.05         -147.0          42.89          56.31
     1.361              -53.48          17.72           44.7          30.91           4.94           1.32         -84.62          72.91         -146.5          42.94          56.25
     1.407              -53.41          17.74          44.63          30.94          4.944          1.276         -84.44          72.75         -145.8           43.0          56.19
     1.452              -53.33          17.75          44.55          30.98          4.948          1.225         -84.23          72.56         -145.1          43.07          56.11
     1.498              -53.23          17.77          44.46          31.03          4.954          1.166         -83.99          72.35         -144.2          43.14          56.02
     1.543              -53.12          17.79          44.36          31.08          4.961          1.097         -83.71          72.09         -143.2          43.23          55.92
     1.588              -52.99          17.81          44.23          31.14          4.968          1.016         -83.38           71.8         -142.1          43.34           55.8
     1.634              -52.83          17.84          44.08          31.21          4.977         0.9188         -82.98          71.44         -140.7          43.47          55.65
     1.679              -52.64          17.87           43.9           31.3          4.988         0.8027         -82.51          71.02         -139.0          43.62          55.48
     1.725              -52.41          17.91          43.69          31.41          5.001         0.6622         -81.93           70.5         -136.9           43.8          55.27
      1.77              -52.13          17.96          43.43          31.54          5.017         0.4906         -81.23          69.87         -134.5          44.03          55.01
     1.815              -51.78          18.02           43.1           31.7          5.037         0.2788         -80.37           69.1         -131.4          44.31           54.7
     1.861              -51.35          18.09           42.7          31.89          5.062        0.01473         -79.29          68.13         -127.6          44.65           54.3
     1.906              -50.81          18.19          42.19          32.15          5.093         -0.318         -77.93          66.91         -122.8          45.09           53.8
     1.951              -50.12          18.31          41.54          32.46          5.133        -0.7409         -76.21          65.37         -116.6          45.65          53.17
     1.997              -49.24          18.46          40.71          32.87          5.184         -1.282          -74.0          63.39         -108.8          46.36          52.36
     2.042               -48.1          18.66          39.64           33.4          5.249         -1.977         -71.16          60.84         -98.75          47.27          51.32
     2.088              -46.66          18.91          38.28          34.07          5.332         -2.864         -67.54           57.6         -85.91          48.43           50.0
     2.133              -44.84          19.23          36.57          34.91          5.437          -3.98         -62.99          53.51         -69.77           49.9          48.33
     2.178              -42.62          19.62          34.49          35.93          5.565         -5.339         -57.44          48.53         -50.09          51.68          46.29
     2.224              -40.05          20.06          32.07          37.12          5.713         -6.915         -51.01          42.77         -27.29          53.75          43.94
     2.269              -37.26          20.55          29.45          38.41          5.873         -8.622         -44.04          36.52         -2.594          55.99          41.39
     2.315              -34.48          21.03          26.84          39.69          6.033         -10.33         -37.08          30.27           22.1          58.23          38.83
      2.36              -31.91          21.48          24.42          40.88          6.181          -11.9         -30.65           24.5           44.9           60.3          36.48
     2.405              -29.69          21.86          22.33          41.91          6.309         -13.26          -25.1          19.53          64.58          62.08          34.44
     2.451              -27.87          22.18          20.62          42.75          6.414         -14.38         -20.55          15.44          80.72          63.55          32.78
     2.496              -26.42          22.43          19.26          43.42          6.497         -15.27         -16.93           12.2          93.56          64.71          31.45
     2.541              -25.29          22.63           18.2          43.94          6.562         -15.96         -14.09          9.654          103.6          65.62          30.41
     2.587               -24.4          22.78          17.37          44.35          6.613          -16.5         -11.88          7.672          111.4          66.34           29.6
     2.632              -23.71           22.9          16.72          44.67          6.653         -16.93         -10.16          6.124          117.6          66.89          28.97
     2.678              -23.17           23.0          16.21          44.92          6.684         -17.26         -8.797          4.907          122.4          67.33          28.47
